<svg width="32" height="30" viewBox="0 0 32 30" fill="none" xmlns="http://www.w3.org/2000/svg">
<path fill-rule="evenodd" clip-rule="evenodd" d="M8.48414 0.200705C5.23434 1.06181 2.33141 3.76162 1.08671 7.08033C0.130863 9.62929 0.36499 13.5933 1.62821 16.2454C2.95397 19.0285 14.3739 30 15.9449 30C17.1016 30 18.2422 29.0207 25.8581 21.4908C30.5439 16.858 31.5372 14.9992 31.499 10.9342C31.4574 6.45724 29.4214 2.99857 25.7058 1.0924C23.2296 -0.178098 19.9012 -0.275732 17.6085 0.855229C16.1186 1.58979 15.9573 1.59356 14.5826 0.926045C12.826 0.0729003 10.1613 -0.243886 8.48414 0.200705ZM14.5208 2.90219C15.8141 3.65686 16.2017 3.72181 16.8074 3.28602C20.6003 0.556461 25.5594 1.63211 28.2862 5.77589C30.9208 9.77847 30.3896 14.4988 26.8966 18.1247L24.943 20.1528L24.8158 18.1146C24.7113 16.4431 24.8409 15.9675 25.5359 15.4718C26.8061 14.5655 26.7605 10.6224 25.4684 9.70095C24.9656 9.34226 24.0571 9.04852 23.4498 9.04852C22.5511 9.04852 22.3853 8.89389 22.5589 8.21716C22.9334 6.75852 22.333 5.38243 21.1373 4.95753C19.6255 4.42117 18.4747 4.91269 17.0827 6.68896L15.9318 8.15808L15.0018 6.76439C13.4156 4.38765 10.5917 4.06206 9.50459 6.13081C9.24454 6.62611 9.14331 7.48512 9.27992 8.03991C9.49759 8.92239 9.38608 9.04935 8.38909 9.0548C7.76242 9.05857 7.04605 9.19979 6.79711 9.36907C5.26314 10.412 4.91627 14.0052 6.22105 15.334C6.81933 15.9432 7.03988 16.7159 7.02835 18.1624L7.01272 20.1528L5.05494 18.0166C0.985489 13.5761 1.09535 7.80819 5.32322 3.92588C6.25849 3.06771 7.53693 2.24976 8.16525 2.10855C8.79315 1.96733 9.49224 1.78296 9.71855 1.69874C10.5341 1.39494 12.9955 2.01175 14.5208 2.90219ZM13.6275 7.79143L14.5064 9.04852H13.0889C11.5426 9.04852 10.5168 8.16939 10.8941 7.16833C11.2863 6.12788 12.6877 6.44718 13.6275 7.79143ZM21.034 7.12852C21.034 8.51551 20.5077 9.04852 19.1384 9.04852C17.5402 9.04852 17.5028 8.97225 18.4068 7.56725C19.1342 6.4367 21.034 6.1195 21.034 7.12852ZM15.313 12.4057V13.8775H11.1982C7.5758 13.8775 7.14243 13.8775 7.09058 12.7298C7.07486 12.3818 7.18489 12.0401 7.37523 11.7483C7.70666 11.2403 8.2722 10.9339 8.87879 10.9339L9.55236 10.9338L11.1982 10.934L15.313 10.9338V12.4057ZM24.6301 11.9705C24.7253 12.1165 24.7702 12.2895 24.7581 12.4632L24.7531 12.5341C24.7001 13.2907 24.0708 13.8775 23.3123 13.8775H20.8678H18.9133H16.9588V12.4057V10.9342H20.6621H22.308L22.7161 10.9341C23.4882 10.9339 24.2082 11.3238 24.6301 11.9705ZM10.7472 19.5339V23.3148L9.71855 22.6284C8.77505 21.999 8.68987 21.686 8.68987 18.8475C8.68987 15.8259 8.71415 15.753 9.71855 15.753C10.7398 15.753 10.7472 15.7802 10.7472 19.5339ZM15.2734 21.6194C15.2734 24.8694 15.1064 27.4858 14.8986 27.4858C14.6924 27.4858 14.0443 26.9055 13.4584 26.1965C12.4902 25.0249 12.3935 24.5761 12.3989 21.2729C12.4063 16.4042 12.6054 15.753 14.0871 15.753H15.2734V21.6194ZM19.3881 20.4935C19.3881 25.2319 19.3828 25.239 18.1537 26.4382L16.9193 27.6425V21.6978V15.753H18.1537H19.3881V20.4935ZM23.0914 18.7579C23.0914 20.9661 22.9107 21.9659 22.4104 22.5291C22.0359 22.9507 21.573 23.2955 21.3817 23.2955C21.1904 23.2955 21.034 21.5985 21.034 19.5243C21.034 15.7811 21.0418 15.753 22.0627 15.753C23.0642 15.753 23.0914 15.8322 23.0914 18.7579Z" fill="black" fill-opacity="0.6"/>
</svg>
