<svg width="22" height="22" viewBox="0 0 22 22" fill="none" xmlns="http://www.w3.org/2000/svg">
<path fill-rule="evenodd" clip-rule="evenodd" d="M10.7315 3.93547C11.0895 4.29346 11.0895 4.87386 10.7315 5.23184L5.87969 10.0837H18.3333C18.8396 10.0837 19.25 10.4941 19.25 11.0003C19.25 11.5066 18.8396 11.917 18.3333 11.917H5.87969L10.7315 16.7688C11.0895 17.1268 11.0895 17.7072 10.7315 18.0652C10.3735 18.4231 9.79312 18.4231 9.43516 18.0652L3.01848 11.6485C2.84658 11.4766 2.75 11.2434 2.75 11.0003C2.75 10.7572 2.84658 10.524 3.01848 10.3522L9.43516 3.93547C9.79312 3.5775 10.3735 3.5775 10.7315 3.93547Z" fill="#3B82F6"/>
</svg>
