<svg width="31" height="30" viewBox="0 0 31 30" fill="none" xmlns="http://www.w3.org/2000/svg">
<path d="M18.6156 8.00988C19.7031 8.05176 20.6862 8.43988 21.2118 8.96613C21.2699 9.02416 21.3388 9.07018 21.4147 9.10157C21.4905 9.13296 21.5718 9.1491 21.6539 9.14907C21.736 9.14904 21.8173 9.13284 21.8931 9.1014C21.9689 9.06996 22.0378 9.02389 22.0959 8.96582C22.1539 8.90775 22.1999 8.83882 22.2313 8.76297C22.2627 8.68711 22.2788 8.60582 22.2788 8.52372C22.2788 8.44163 22.2626 8.36035 22.2311 8.28452C22.1997 8.20868 22.1536 8.13979 22.0956 8.08176C21.2849 7.27113 19.9649 6.81113 18.6643 6.76051C17.3549 6.70988 15.9256 7.06801 14.9243 8.06926C14.8071 8.18653 14.7413 8.34556 14.7414 8.51135C14.7414 8.67715 14.8073 8.83613 14.9246 8.95332C15.0419 9.07051 15.2009 9.13632 15.3667 9.13626C15.5325 9.1362 15.6915 9.07028 15.8087 8.95301C16.4899 8.27113 17.5362 7.96738 18.6156 8.00926" fill="black"/>
<path fill-rule="evenodd" clip-rule="evenodd" d="M13.218 18.085C14.6825 19.3243 16.5396 20.003 18.458 20C22.9455 20 26.583 16.3625 26.583 11.875C26.583 7.3875 22.9455 3.75 18.458 3.75C13.9705 3.75 10.333 7.3875 10.333 11.875C10.333 13.8719 11.053 15.7 12.248 17.115L10.868 16.875L4.44051 23.3025C3.96363 23.7794 3.96363 24.5525 4.44051 25.0288L5.30426 25.8925C5.78113 26.3694 6.55426 26.3694 7.03051 25.8925L13.458 19.465L13.218 18.085ZM11.583 11.875C11.583 15.6719 14.6611 18.75 18.458 18.75C22.2549 18.75 25.333 15.6719 25.333 11.875C25.333 8.07812 22.2549 5 18.458 5C14.6611 5 11.583 8.07812 11.583 11.875ZM7.05238 22.4581L11.293 18.2175L11.993 18.3394L12.1155 19.04L7.86238 23.2931L7.05238 22.4581ZM6.97863 24.1769L6.16738 24.9881L5.34488 24.1656L6.16863 23.3419L6.97863 24.1769Z" fill="black"/>
</svg>
