<svg width="18" height="18" viewBox="0 0 18 18" fill="none" xmlns="http://www.w3.org/2000/svg">
<path d="M9.02978 12.133C9.13778 12.133 9.24044 12.1153 9.33778 12.08C9.43578 12.0447 9.52811 11.9833 9.61478 11.896L11.9918 9.5C12.2371 9.25534 12.3948 8.96067 12.4648 8.616C12.5348 8.27134 12.4998 7.93967 12.3598 7.621C12.2198 7.30234 12.0081 7.04234 11.7248 6.841C11.4414 6.63967 11.1241 6.53867 10.7728 6.538C10.4214 6.53734 10.1041 6.644 9.82078 6.858C9.53744 7.072 9.27411 7.30134 9.03078 7.546C8.78211 7.30134 8.52078 7.07234 8.24678 6.859C7.97278 6.64567 7.65944 6.539 7.30678 6.539C6.95411 6.539 6.63611 6.63534 6.35278 6.828C6.06944 7.02067 5.85678 7.27667 5.71478 7.596C5.57411 7.928 5.53678 8.26634 5.60278 8.611C5.66878 8.95567 5.82411 9.252 6.06878 9.5L8.45878 11.896C8.54611 11.9827 8.63611 12.044 8.72878 12.08C8.82144 12.116 8.92211 12.1337 9.03078 12.133M7.95978 18C7.72778 18 7.52611 17.9237 7.35478 17.771C7.18344 17.6183 7.07744 17.428 7.03678 17.2L6.77278 15.108C6.45344 15.0113 6.10844 14.86 5.73778 14.654C5.36711 14.448 5.05111 14.2267 4.78978 13.99L2.87478 14.813C2.66344 14.9063 2.44878 14.9167 2.23078 14.844C2.01278 14.7713 1.84478 14.633 1.72678 14.429L0.647777 12.57C0.529777 12.366 0.49511 12.1533 0.543777 11.932C0.592444 11.7107 0.708444 11.5287 0.891777 11.386L2.56278 10.136C2.53344 9.95467 2.50911 9.76801 2.48978 9.576C2.47044 9.384 2.46111 9.198 2.46178 9.018C2.46178 8.85 2.47111 8.67334 2.48978 8.488C2.50844 8.30267 2.53278 8.094 2.56278 7.862L0.892777 6.612C0.708777 6.47 0.595444 6.285 0.552777 6.057C0.51011 5.829 0.54811 5.613 0.666777 5.409L1.72678 3.609C1.84478 3.41767 2.01278 3.28234 2.23078 3.203C2.44878 3.12367 2.66344 3.13067 2.87478 3.224L4.77078 4.028C5.06944 3.77934 5.39278 3.555 5.74078 3.355C6.08878 3.155 6.42644 3.00034 6.75378 2.891L7.03678 0.799004C7.07744 0.571004 7.18344 0.380671 7.35478 0.228004C7.52611 0.0753376 7.72778 -0.000662319 7.95978 4.34783e-06H10.0398C10.2718 4.34783e-06 10.4734 0.0763378 10.6448 0.229004C10.8161 0.381671 10.9221 0.572004 10.9628 0.800004L11.2268 2.912C11.6101 3.046 11.9488 3.20034 12.2428 3.375C12.5368 3.54967 12.8398 3.76767 13.1518 4.029L15.1438 3.225C15.3558 3.13167 15.5704 3.12467 15.7878 3.204C16.0051 3.28334 16.1731 3.41867 16.2918 3.61L17.3518 5.429C17.4698 5.633 17.5044 5.84567 17.4558 6.067C17.4071 6.28834 17.2911 6.47034 17.1078 6.613L15.3598 7.921C15.4144 8.12767 15.4451 8.31701 15.4518 8.48901C15.4584 8.66101 15.4618 8.83134 15.4618 9C15.4618 9.15534 15.4551 9.31901 15.4418 9.491C15.4291 9.66367 15.3998 9.87234 15.3538 10.117L17.0438 11.387C17.2271 11.529 17.3464 11.711 17.4018 11.933C17.4571 12.1543 17.4258 12.367 17.3078 12.571L16.2418 14.41C16.1238 14.6133 15.9528 14.7517 15.7288 14.825C15.5041 14.8983 15.2861 14.8883 15.0748 14.795L13.1518 13.971C12.8404 14.2323 12.5271 14.4567 12.2118 14.644C11.8958 14.8313 11.5674 14.9793 11.2268 15.088L10.9628 17.2C10.9221 17.428 10.8161 17.6183 10.6448 17.771C10.4734 17.9237 10.2718 18 10.0398 18H7.95978ZM7.99978 17H9.95578L10.3248 14.292C10.8288 14.1587 11.2821 13.9757 11.6848 13.743C12.0874 13.5103 12.4981 13.1917 12.9168 12.787L15.4118 13.85L16.4058 12.15L14.2168 10.506C14.3001 10.2213 14.3554 9.95934 14.3828 9.72001C14.4101 9.48067 14.4234 9.24067 14.4228 9C14.4228 8.74667 14.4094 8.50667 14.3828 8.28C14.3561 8.05334 14.3008 7.80434 14.2168 7.533L16.4438 5.85L15.4498 4.15L12.8978 5.22C12.5951 4.88734 12.1974 4.576 11.7048 4.286C11.2121 3.996 10.7454 3.80334 10.3048 3.708L9.99978 1H8.00578L7.69378 3.688C7.18978 3.796 6.72644 3.96934 6.30378 4.208C5.88111 4.44667 5.46111 4.77534 5.04378 5.194L2.54978 4.15L1.55578 5.85L3.72478 7.47C3.64144 7.694 3.58311 7.93734 3.54978 8.2C3.51644 8.46267 3.49978 8.736 3.49978 9.02001C3.49978 9.27334 3.51644 9.525 3.54978 9.775C3.58311 10.025 3.63511 10.2683 3.70578 10.505L1.55578 12.15L2.54978 13.85L5.02478 12.8C5.41678 13.196 5.82411 13.5137 6.24678 13.753C6.66944 13.9923 7.14544 14.1787 7.67478 14.312L7.99978 17Z" fill="black"/>
</svg>
